<svg width="200" height="25" viewBox="0 0 200 25" fill="none" xmlns="http://www.w3.org/2000/svg">
<path d="M67.7719 0.114502H66.1511V9.83518H67.7719V0.114502ZM62.663 9.83518L60.3454 5.87543C60.9461 5.69382 61.4718 5.32105 61.8436 4.8132C62.2153 4.30535 62.4131 3.68986 62.407 3.0593C62.407 1.24382 61.099 0.114502 59.0374 0.114502H54.8289V9.83518H56.4497V6.11845H58.7388L60.8004 9.83518H62.663ZM56.445 4.76518V1.51542H59.0184C59.2344 1.50053 59.4511 1.52994 59.6554 1.60185C59.8597 1.67376 60.0474 1.78668 60.2069 1.93374C60.3665 2.08081 60.4947 2.25895 60.5837 2.45736C60.6727 2.65576 60.7206 2.87028 60.7246 3.08789C60.7309 3.31436 60.6903 3.53968 60.6054 3.74954C60.5204 3.9594 60.3931 4.14921 60.2313 4.30693C60.0695 4.46465 59.8769 4.58683 59.6657 4.66572C59.4544 4.74461 59.2292 4.77848 59.0042 4.76518H56.445ZM51.2555 9.83518V8.40567H45.81V5.63242H49.791V4.2029H45.81V1.54401H51.2555V0.114502H44.175V9.83518H51.2555ZM33.649 8.41996V1.52972H35.9712C36.4222 1.51975 36.8704 1.60234 37.2885 1.77244C37.7066 1.94254 38.0858 2.19658 38.403 2.51902C38.7202 2.84147 38.9686 3.22555 39.1331 3.6478C39.2976 4.07005 39.3748 4.5216 39.3598 4.97484C39.3748 5.42808 39.2976 5.87963 39.1331 6.30188C38.9686 6.72413 38.7202 7.10821 38.403 7.43066C38.0858 7.7531 37.7066 8.00714 37.2885 8.17724C36.8704 8.34734 36.4222 8.42993 35.9712 8.41996H33.649ZM35.9665 9.84947C38.8385 9.84947 41.0139 7.84816 41.0139 5.01773C41.0139 2.18729 38.8006 0.114502 35.9855 0.114502H32.0376V9.83518L35.9665 9.84947ZM28.4595 9.84947V8.41996H23.033V5.63242H27.014V4.2029H23.033V1.54401H28.4784V0.114502H21.4027V9.83518L28.4595 9.84947ZM17.9288 9.84947L15.6397 5.87543C16.2398 5.69365 16.7649 5.3207 17.1359 4.81276C17.5069 4.30483 17.7036 3.68943 17.6965 3.0593C17.6965 1.24382 16.3932 0.114502 14.3316 0.114502H10.1184V9.83518H11.7345V6.11845H14.0283L16.1136 9.83518L17.9288 9.84947ZM11.7345 4.76518V1.51542H14.3127C14.5286 1.50053 14.7453 1.52994 14.9497 1.60185C15.154 1.67376 15.3416 1.78668 15.5012 1.93374C15.6607 2.08081 15.7889 2.25895 15.8779 2.45736C15.9669 2.65576 16.0148 2.87028 16.0188 3.08789C16.0251 3.31436 15.9845 3.53968 15.8996 3.74954C15.8147 3.9594 15.6873 4.14921 15.5255 4.30693C15.3637 4.46465 15.1711 4.58683 14.9599 4.66572C14.7486 4.74461 14.5234 4.77848 14.2985 4.76518H11.7345ZM6.18478 5.63242V4.2029H1.63506V1.54401H7.02363V0.114502H0V9.83518H1.63506V5.63242H6.18478Z" fill="black"/>
<path d="M198.212 6.19455C197.996 6.87778 197.563 7.47121 196.981 7.88421C196.398 8.29721 195.697 8.50708 194.984 8.48176C194.533 8.48131 194.087 8.39003 193.672 8.21332C193.257 8.0366 192.881 7.77804 192.567 7.4529C192.253 7.12776 192.007 6.74264 191.843 6.32027C191.68 5.8979 191.602 5.44685 191.614 4.99376C191.601 4.53982 191.678 4.0878 191.842 3.66435C192.005 3.2409 192.251 2.85458 192.565 2.52818C192.879 2.20177 193.255 1.94188 193.67 1.76383C194.086 1.58578 194.532 1.49317 194.984 1.49146C195.554 1.48825 196.115 1.63256 196.613 1.91047C197.111 2.18838 197.529 2.59054 197.828 3.07821H199.633C199.172 2.01182 198.361 1.13639 197.336 0.597425C196.311 0.058456 195.133 -0.111596 193.999 0.115533C192.864 0.342661 191.841 0.95329 191.1 1.84593C190.358 2.73858 189.943 3.85948 189.923 5.02235C189.916 5.6833 190.043 6.33866 190.296 6.94905C190.548 7.55944 190.92 8.11225 191.39 8.57426C191.86 9.03627 192.419 9.39794 193.031 9.63753C193.644 9.87712 194.299 9.98968 194.956 9.96846C195.626 9.97769 196.291 9.85062 196.912 9.59489C197.532 9.33917 198.095 8.96005 198.566 8.4803C199.036 8.00055 199.406 7.43006 199.652 6.80309C199.899 6.17611 200.016 5.50558 199.998 4.83175H194.984V6.19455H198.212ZM187.615 9.8541L185.306 5.87529C185.907 5.69368 186.433 5.32091 186.805 4.81306C187.176 4.3052 187.374 3.68971 187.368 3.05915C187.368 1.24367 186.06 0.114361 183.998 0.114361H179.795V9.83504H181.411V6.11831H183.7L185.766 9.83504L187.615 9.8541ZM181.401 4.76504V1.51528H183.975C184.191 1.50041 184.408 1.52979 184.612 1.60165C184.817 1.67351 185.005 1.78635 185.165 1.93336C185.325 2.08036 185.453 2.25846 185.543 2.45688C185.632 2.6553 185.681 2.86992 185.686 3.08774C185.691 3.31445 185.65 3.53986 185.565 3.74973C185.479 3.9596 185.351 4.14935 185.189 4.307C185.027 4.46464 184.834 4.58675 184.623 4.66559C184.411 4.74443 184.186 4.77829 183.961 4.76504H181.401ZM176.212 9.83504V8.40552H170.766V5.63227H174.747V4.20276H170.766V1.54387H176.212V0.114361H169.136V9.83504H176.212ZM162.349 5.5465C162.545 5.53359 162.742 5.56076 162.928 5.62638C163.113 5.69199 163.283 5.7947 163.428 5.92829C163.573 6.06189 163.689 6.2236 163.77 6.40367C163.851 6.58374 163.895 6.77844 163.899 6.97601C163.882 7.38348 163.704 7.76741 163.406 8.04348C163.107 8.31956 162.712 8.46519 162.307 8.44841H159.292V5.5608L162.349 5.5465ZM162.264 1.4724C163.188 1.4724 163.8 1.98702 163.8 2.83043C163.801 3.0197 163.764 3.20729 163.691 3.38173C163.618 3.55616 163.51 3.71377 163.374 3.8449C163.239 3.97604 163.078 4.07795 162.902 4.1444C162.725 4.21084 162.537 4.24043 162.349 4.23135H159.292V1.48669L162.264 1.4724ZM162.449 9.82074C164.269 9.82074 165.534 8.56277 165.534 7.0046C165.519 6.55678 165.387 6.12073 165.153 5.73963C164.919 5.35852 164.589 5.04557 164.198 4.83175C164.555 4.61508 164.852 4.31179 165.062 3.94966C165.273 3.58752 165.389 3.17812 165.401 2.75896C165.401 1.1722 164.093 0.114361 162.458 0.114361H157.672V9.83504L162.449 9.82074ZM153.951 3.05915C153.71 1.12931 152.131 0 149.999 0C147.752 0 146.165 1.11502 146.165 2.88761C146.165 4.73168 147.809 5.20342 149.657 5.47503C151.108 5.68945 152.406 5.95153 152.406 7.07608C152.406 8.02909 151.392 8.53418 150.169 8.53418C148.819 8.53418 147.894 7.84802 147.695 6.86165H146.094C146.245 9.0488 148.094 9.9494 150.07 9.9494C152.217 9.9494 154.051 8.96303 154.051 6.91883C154.051 4.94611 152.335 4.3743 150.354 4.05981C148.861 3.83109 147.795 3.58331 147.795 2.65889C147.795 1.88695 148.648 1.41522 149.899 1.41522C151.15 1.41522 152.06 2.02991 152.349 3.05915H153.951ZM144.075 9.83504L139.563 4.76504L143.828 0.119126H141.894L138.184 4.28853H138.141V0.114361H136.492V9.83504H138.127V5.5465H138.169L141.961 9.83504H144.075Z" fill="black"/>
<path d="M153.264 24.1301V22.7006H147.819V19.9273H151.8V18.4978H147.819V15.8389H153.264V14.4094H146.184V24.1301H153.264ZM142.136 24.1301V14.4094H140.596L140.639 21.557H140.596L135.26 14.4094H133.738V24.1301H135.274L135.231 16.8682H135.274L140.639 24.1301H142.136ZM130.288 24.1301L127.961 20.1703C128.562 19.9887 129.087 19.616 129.459 19.1081C129.831 18.6003 130.029 17.9848 130.023 17.3542C130.023 15.5387 128.715 14.4094 126.653 14.4094H122.449V24.1301H124.065V20.4134H126.354L128.421 24.1301H130.288ZM124.07 19.0601V15.8103H126.643C126.86 15.7955 127.077 15.8249 127.281 15.8967C127.486 15.9686 127.674 16.0814 127.834 16.2284C127.994 16.3754 128.122 16.5535 128.212 16.7519C128.301 16.9504 128.35 17.165 128.354 17.3828C128.36 17.6095 128.319 17.8349 128.233 18.0448C128.148 18.2547 128.02 18.4444 127.858 18.6021C127.696 18.7597 127.503 18.8818 127.291 18.9606C127.08 19.0395 126.854 19.0734 126.629 19.0601H124.07Z" fill="black"/>
<path d="M54.0277 24.1302V22.7007H48.6012V19.9274H52.6059V18.4979H48.6249V15.839H54.0277V14.4095H46.9661V24.1302H54.0277ZM43.2505 24.1302V22.7007H37.824V19.9274H41.805V18.4979H37.824V15.839H43.2695V14.4095H36.1937V24.1302H43.2505ZM32.3264 17.3543C32.0895 15.4245 30.5255 14.2952 28.3786 14.2952C26.1274 14.2952 24.5398 15.4102 24.5398 17.1828C24.5398 18.9554 26.1843 19.4986 28.0374 19.7702C29.4876 19.9846 30.7814 20.2467 30.7814 21.3712C30.7814 22.3243 29.772 22.8294 28.5492 22.8294C27.1985 22.8294 26.2696 22.1432 26.0706 21.1568H24.4687C24.644 23.3487 26.4687 24.2446 28.4355 24.2446C30.5824 24.2446 32.4117 23.2582 32.4117 21.214C32.4117 19.1698 30.6961 18.6695 28.7198 18.355C27.227 18.1263 26.1559 17.8547 26.1559 16.9541C26.1701 16.2012 27.0137 15.7247 28.2791 15.7247C29.5445 15.7247 30.4402 16.3394 30.7246 17.3686L32.3264 17.3543ZM19.2365 19.9274C19.2365 21.6572 18.2886 22.7579 16.8669 22.7579C15.4451 22.7579 14.4972 21.6572 14.4972 19.9274V14.4095H12.8811V19.9417C12.8811 22.6578 14.4877 24.2303 16.8621 24.2303C19.2365 24.2303 20.8573 22.6435 20.8573 19.9417V14.4095H19.2365V19.9274Z" fill="black"/>
<path d="M7.56391 14.4094L4.54972 18.1547H4.50707L1.52131 14.4094H0V24.1301H1.60662V16.9254H1.66349L4.37911 20.2418H4.66347L7.3933 16.9254H7.43595V24.1301H9.04257V14.4094H7.56391Z" fill="black"/>
</svg>
